<svg width="80" height="80" fill="none" xmlns="http://www.w3.org/2000/svg"><circle cx="40" cy="40" r="40" fill="#E9E9EC"/><path fill-rule="evenodd" clip-rule="evenodd" d="M26.168 51.745h6.902c.455 0 .822.368.822.822v6.902a.821.821 0 0 1-.822.822h-6.902a.821.821 0 0 1-.822-.822v-6.902c0-.454.367-.822.822-.822Zm27.445-9.638H40.96a.821.821 0 1 1 0-1.643h12.654a.821.821 0 1 1 0 1.643ZM34.404 25.383l-6.458 6.457a.822.822 0 0 1-1.305-.155l-1.952-3.383a.824.824 0 0 1 .3-1.121.824.824 0 0 1 1.12.3l1.422 2.465 5.713-5.714a.823.823 0 0 1 1.16 0 .823.823 0 0 1 0 1.16v-.01ZM30.19 15h-9.367a.821.821 0 0 0-.822.822v47.853c0 .454.367.822.822.822h37.374a.821.821 0 0 0 .821-.822V15.822a.821.821 0 0 0-.822-.822h-9.367v4.476a.821.821 0 0 1-.822.822H31.011a.821.821 0 0 1-.822-.822V15Zm9.948 41.018a.82.82 0 0 1 .822-.821h12.654a.821.821 0 1 1 0 1.643H40.96a.82.82 0 0 1-.822-.822Zm-5.733-17.382-6.458 6.458a.822.822 0 0 1-1.305-.155l-1.952-3.383a.824.824 0 0 1 .3-1.121.824.824 0 0 1 1.12.3l1.422 2.465 5.713-5.714a.823.823 0 0 1 1.16 0 .823.823 0 0 1 0 1.16v-.01Zm6.555-9.783a.82.82 0 1 1 0-1.643h12.654a.821.821 0 1 1 0 1.643H40.96Z" fill="#0B7572"/><path fill-rule="evenodd" clip-rule="evenodd" d="M48.006 15.03H31.011v4.446h16.995v-4.447Z" fill="#0B7572"/></svg>