<svg width="80" height="80" fill="none" xmlns="http://www.w3.org/2000/svg"><circle cx="40" cy="40" r="40" fill="#E9E9EC"/><path fill-rule="evenodd" clip-rule="evenodd" d="M22.287 29.011A21.928 21.928 0 0 0 18 42.073c0 4.89 1.592 9.408 4.287 13.062 2.445-.902 5.169-1.621 8.094-2.12.345-.057.69-.115 1.036-.163-.672-3.222-1.046-6.885-1.046-10.77 0-1.793.077-3.538.23-5.217l-.738 1.2-5.236-8.258a37.215 37.215 0 0 1-2.34-.786v-.01ZM30.62 54.444c-2.656.451-5.14 1.094-7.374 1.89a19.43 19.43 0 0 0 1.85 1.918 21.881 21.881 0 0 0 11.145 5.495c-1.228-1.237-2.321-3.06-3.213-5.342a33.559 33.559 0 0 1-1.295-4.143 38.48 38.48 0 0 0-1.112.182ZM33.2 54.07a31.294 31.294 0 0 0 1.2 3.808c1.495 3.826 3.48 6.195 5.61 6.195 2.128 0 4.114-2.369 5.61-6.195.45-1.151.853-2.426 1.198-3.807a57.72 57.72 0 0 0-6.799-.403c-2.35 0-4.622.134-6.8.403H33.2ZM31.839 42.064c0 3.826.374 7.432 1.035 10.568a59.294 59.294 0 0 1 14.27 0c.662-3.145 1.036-6.742 1.036-10.568 0-3.827-.374-7.433-1.035-10.569a58.922 58.922 0 0 1-13.32.105l-.893 1.449-.49.796c-.392 2.541-.603 5.313-.603 8.228v-.01ZM34.668 30.22c1.726.163 3.51.24 5.332.24 2.35 0 4.622-.135 6.8-.403a31.277 31.277 0 0 0-1.2-3.807c-1.496-3.827-3.48-6.196-5.61-6.196-.633 0-1.256.211-1.86.614.028.182.048.374.057.566v.038c0 .02 0 .048.01.067.01.096.019.192.019.288V21.991c0 1.688-.7 3.549-1.582 4.978l-1.986 3.241.02.01ZM46.972 25.722c.49 1.246.92 2.637 1.295 4.143.374-.058.748-.115 1.112-.182 2.657-.451 5.14-1.094 7.375-1.89A21.973 21.973 0 0 0 43.77 20.37c1.227 1.238 2.32 3.06 3.213 5.342l-.01.01ZM48.584 31.294c.67 3.222 1.045 6.886 1.045 10.77 0 3.884-.374 7.547-1.045 10.77.345.047.69.105 1.035.162 2.925.5 5.649 1.218 8.094 2.12A21.928 21.928 0 0 0 62 42.054c0-4.891-1.592-9.408-4.287-13.062-2.445.902-5.169 1.62-8.094 2.12-.345.057-.69.115-1.035.163v.019ZM48.267 54.272a31.996 31.996 0 0 1-1.295 4.143c-.892 2.273-1.975 4.104-3.212 5.342a21.889 21.889 0 0 0 11.134-5.496 21.985 21.985 0 0 0 1.85-1.927c-2.234-.796-4.718-1.43-7.374-1.89a38.423 38.423 0 0 0-1.113-.182l.01.01ZM32.069 23.104a3.29 3.29 0 0 1-4.661 0 3.29 3.29 0 0 1 0-4.661 3.29 3.29 0 0 1 4.66 0 3.29 3.29 0 0 1 0 4.66Zm-.326 9.091-.058.087.058-.087Zm5.006-10.827v.02-.02ZM24.78 17.033a7.002 7.002 0 0 0-2.062 4.968c0 1.18.643 2.82 1.583 4.594.01.01.019.019.038.028a.67.67 0 0 1 .125.163l.633.998c.01.01.01.019.019.029l4.747 7.48 1.017-1.65c.019-.028.038-.067.057-.096l.767-1.246.058-.096 3.673-5.984c.815-1.64 1.362-3.127 1.362-4.21V21.712c0-.057-.01-.134-.02-.23 0-.02 0-.038-.01-.067v-.02a7.02 7.02 0 0 0-2.032-4.334A7.002 7.002 0 0 0 29.767 15a7.002 7.002 0 0 0-4.968 2.062l-.019-.029Z" fill="#0B7572"/></svg>