<svg width="80" height="80" fill="none" xmlns="http://www.w3.org/2000/svg"><circle cx="40" cy="40" r="40" fill="#E9E9EC"/><path fill-rule="evenodd" clip-rule="evenodd" d="M60.219 27.84H19.79A1.791 1.791 0 0 0 18 29.63v28.876a1.792 1.792 0 0 0 1.79 1.79h40.429c.488 0 .94-.199 1.257-.524.325-.326.524-.769.524-1.266V29.631a1.791 1.791 0 0 0-1.781-1.79ZM40.845 46.619v9.275c0 .462-.38.841-.84.841a.845.845 0 0 1-.841-.84v-9.276a2.303 2.303 0 0 1 .84-4.448 2.303 2.303 0 0 1 .841 4.448Z" fill="#0B7572"/><path fill-rule="evenodd" clip-rule="evenodd" d="M57.95 31.403a17.902 17.902 0 0 0-5.253-12.141A17.91 17.91 0 0 0 40.004 14a17.871 17.871 0 0 0-12.692 5.262 17.902 17.902 0 0 0-5.253 12.14h35.89Zm-3.806-3.3a14.504 14.504 0 0 0-3.78-6.5 14.597 14.597 0 0 0-10.36-4.294 14.597 14.597 0 0 0-10.36 4.294 14.554 14.554 0 0 0-3.779 6.5h28.279Z" fill="#0B7572"/></svg>