<svg width="92" height="92" fill="none" xmlns="http://www.w3.org/2000/svg"><circle cx="46" cy="46" r="46" fill="#E9E9EC"/><path d="M61.282 53.722H31.643a4.334 4.334 0 0 0-3.083-4.166V29.458a4.166 4.166 0 0 0 2.889-2.903h13.889a4.292 4.292 0 0 0 2.903 2.903v6.486l-2.598 2.611-1.389-1.388a1.22 1.22 0 0 0-1.736 0 1.236 1.236 0 0 0 0 1.75l1.39 1.388-1.39 1.39a1.236 1.236 0 0 0 .868 2.111 1.222 1.222 0 0 0 .868-.362l1.39-1.389 2.958 2.959a1.224 1.224 0 0 0 1.736 0l3.07-2.972 1.388 1.388a1.235 1.235 0 1 0 1.736-1.75l-1.389-1.388 1.39-1.39a1.236 1.236 0 0 0-1.339-2.017 1.22 1.22 0 0 0-.398.268l-1.389 1.389-2.583-2.598v-6.486a4.32 4.32 0 1 0-5.375-5.375H31.56a4.32 4.32 0 1 0-5.472 5.375v20.125a4.334 4.334 0 0 0-3.084 4.167v1.111a.345.345 0 0 0 0 .111v7.417a8.653 8.653 0 0 0 8.64 8.61h29.638a8.639 8.639 0 1 0 0-17.277Zm-9.722-13.43-2.028 2.097-2.07-2.097 2.07-2.084 2.028 2.084Zm9.722 25.763a3.71 3.71 0 1 1 3.695-3.694 3.694 3.694 0 0 1-3.695 3.694ZM27.95 62.361a3.709 3.709 0 1 1 7.417-.027 3.709 3.709 0 0 1-7.417.027Zm27.153 0a3.708 3.708 0 1 1-7.416 0 3.708 3.708 0 0 1 7.416 0Zm-9.875 0a3.71 3.71 0 1 1-7.418 0 3.71 3.71 0 0 1 7.418 0Z" fill="#0B7572"/><path d="M31.643 63.598a1.236 1.236 0 1 0 0-2.472 1.236 1.236 0 0 0 0 2.472ZM41.518 63.598a1.236 1.236 0 1 0 0-2.473 1.236 1.236 0 0 0 0 2.473ZM51.407 63.598a1.236 1.236 0 1 0 0-2.472 1.236 1.236 0 0 0 0 2.472ZM61.282 63.598a1.236 1.236 0 1 0 0-2.472 1.236 1.236 0 0 0 0 2.472Z" fill="#0B7572"/></svg>