<svg width="92" height="92" fill="none" xmlns="http://www.w3.org/2000/svg"><circle cx="46" cy="46" r="46" fill="#E9E9EC"/><path d="m33.756 57.356 20.58 8.6V45.008l-20.58-7.644v19.992ZM70.139 46.404l-5.733 2.058v-5.806l-7.57 2.645v20.654l21.314-8.6V37.732l-8.011 2.866v5.807Zm-6.836 14.847-.882.368v-4.63l.882-.295v4.557Zm1.544-.588-.882.368V56.4l.882-.295v4.557Zm3.087-1.25-.882.295V55.15l.882-.294v4.557Zm1.543-.66-.882.367v-4.484l.882-.294v4.41Zm3.087-5.66.883-.294v4.336l-.883.368v-4.41Zm-1.764.661.882-.294v4.41l-.882.368v-4.484ZM70.14 37.731l8.01-2.94L55.954 27l-7.129 2.499 21.315 8.085v.147ZM42.503 31.704l-8.747 3.087 22.197 8.085 8.38-3.013-21.83-8.159ZM12 55.445h18.228V51.77H13.69L12 55.444ZM15.014 48.977h15.214v-3.675H16.704l-1.69 3.675ZM18.027 42.288v.294h12.201v-3.675H19.644l-1.617 3.381Z" fill="#0B7572"/></svg>