<svg width="103" height="57" fill="none" xmlns="http://www.w3.org/2000/svg"><path fill-rule="evenodd" clip-rule="evenodd" d="m2.35 15.427.066 7.567a22.514 22.514 0 0 1 5.8-10.568c.234-.266.502-.5.77-.732L2.35 15.427Zm34.427 31.332c.77 0 1.374.567 1.407 1.3 0 .568-.368 1.068-.871 1.268l-11.867 6.966a1.182 1.182 0 0 1-1.24.033l-11.298-6.6-.033-.032L.64 42.826a1.175 1.175 0 0 1-.604-1.033l.1-13.1-.133-13.866c-.034-.433.201-.867.602-1.1l11.466-6.466L24.105.193c.369-.234.838-.267 1.24-.033l11.297 6.599h.033c.437.234.705.634.705 1.133a1.32 1.32 0 0 1-1.341 1.334 1.5 1.5 0 0 1-.871-.266 21.734 21.734 0 0 0-5.13-1.967 21.822 21.822 0 0 0-5.699-.633c-6.068.133-11.498 2.666-15.386 6.7A21.822 21.822 0 0 0 2.82 28.627a21.707 21.707 0 0 0 6.737 15.3 22.08 22.08 0 0 0 15.655 6.1 21.585 21.585 0 0 0 5.666-.867 23.418 23.418 0 0 0 5.23-2.266l.032-.034c.168-.034.402-.1.638-.1v-.001ZM2.449 33.594l-.066 7.568 6.67 3.733-.167-.168C5.769 41.73 3.49 37.894 2.449 33.594Zm15.79 16.532 6.536 3.833 6.571-3.867-.236.067c-1.91.567-3.92.867-5.932.9a21.953 21.953 0 0 1-6.94-.933ZM31.278 6.36l-6.571-3.834-6.57 3.866a24.817 24.817 0 0 1 6.134-.967c2.01-.03 4.015.195 5.968.667.368.1.704.165 1.039.267v.001Z" fill="#0B7572"/><path fill-rule="evenodd" clip-rule="evenodd" d="M31.347 16.326c.569.3.77 1.033.468 1.6-.3.566-1.039.767-1.609.467a11.458 11.458 0 0 0-2.748-1.067 12.236 12.236 0 0 0-2.916-.333 11.32 11.32 0 0 0-7.912 3.433c-2.01 2.066-3.184 4.9-3.151 8a11.198 11.198 0 0 0 3.453 7.867 11.218 11.218 0 0 0 8.046 3.133c.67 0 1.206.5 1.206 1.167s-.503 1.2-1.173 1.2a13.715 13.715 0 0 1-9.755-3.801 13.472 13.472 0 0 1-4.191-9.532 13.557 13.557 0 0 1 3.822-9.7 13.621 13.621 0 0 1 9.586-4.168 12.783 12.783 0 0 1 3.554.401c1.14.333 2.28.766 3.32 1.333Z" fill="#0B7572"/><path fill-rule="evenodd" clip-rule="evenodd" d="M15.557 15.259c.234-.165.536-.1.704.133.167.234.1.534-.135.7a14.713 14.713 0 0 0-4.726 5.435 15.132 15.132 0 0 0-1.609 7c.067 4.1 1.844 7.8 4.593 10.433l.033.033a14.768 14.768 0 0 0 10.626 4.1 14.994 14.994 0 0 0 3.856-.6c1.24-.366 2.447-.866 3.586-1.566.235-.134.57-.068.704.165.134.234.067.567-.168.701A16.196 16.196 0 0 1 29.2 43.46c-1.34.4-2.716.6-4.123.633a15.95 15.95 0 0 1-11.364-4.4l-.033-.033a15.629 15.629 0 0 1-4.895-11.133c-.067-2.634.57-5.201 1.71-7.501a16.68 16.68 0 0 1 5.062-5.767Z" fill="#0B7572"/><path fill-rule="evenodd" clip-rule="evenodd" d="M20.083 28.76c-.033 0-.068-.234-.068-.5 0-.267.035-.5.068-.5h4.155v-4.6c0-.034.236-.067.504-.067s.503.033.503.067v4.6h4.156c.035 0 .068.233.068.5 0 .266-.034.5-.067.5h-4.157v4.6c0 .033-.235.067-.503.067s-.503-.034-.503-.068V28.76h-4.156Zm37.039-11.436H41.88c-.579 0-.925.19-.925.914v18.896c0 .724.347.914.925.914h3.155c.617 0 .923-.19.923-.914V21.743h7.083v15.39c0 .724.346.915.923.915h3.157c.577 0 .923-.19.923-.914V18.238c0-.724-.346-.914-.923-.914Zm20.244 22.362c0 .724.346.914.924.914h2.616c.579 0 .925-.19.925-.914v-5.41c0-.57-.193-.914-.925-.914h-1.538V18.239c0-.725-.346-.915-.923-.915H66.243c-.578 0-.923.19-.923.914l-1.002 13.028c-.076 1.181-.384 2.096-2.116 2.096-.732 0-.923.342-.923.915v5.41c0 .723.345.913.923.913h2.656c.577 0 .923-.19.923-.914v-1.98h11.624v1.98h-.039Zm-8.159-8.154.808-9.943h4.541v12h-6.62c.77-.266 1.193-.914 1.271-2.057Zm30.828-4.229c.269-.113 2.309-1.143 2.309-4.304 0-2.934-2.231-5.676-7.39-5.676h-8.89c-.731 0-.923.342-.923.913v18.897c0 .571.193.913.923.913h9.353c4.427 0 7.583-2.056 7.583-6.056a5.055 5.055 0 0 0-2.964-4.687h-.001Zm-4.58 6.249h-5.348v-11.81h4.848c1.655 0 2.657.343 2.657 1.754 0 1.218-.81 1.865-2.657 1.865h-.424c-.732 0-.923.344-.923.915v2.4c0 .572.193.915.923.915h.732c1.54 0 2.657.457 2.657 1.904 0 1.448-.886 2.058-2.464 2.058l-.001-.001Z" fill="#0B7572"/></svg>